<?xml version="1.0" encoding="UTF-8" standalone="no"?>
<!DOCTYPE svg PUBLIC "-//W3C//DTD SVG 1.1//EN"
 "http://www.w3.org/Graphics/SVG/1.1/DTD/svg11.dtd">
<!-- Generated by graphviz version 2.38.0 (20140413.2041)
 -->
<!-- Title: models_diagram Pages: 1 -->
<svg width="530pt" height="303pt"
 viewBox="0.00 0.00 529.50 303.00" xmlns="http://www.w3.org/2000/svg" xmlns:xlink="http://www.w3.org/1999/xlink">
<g id="graph0" class="graph" transform="scale(1 1) rotate(0) translate(4 299)">
<title>models_diagram</title>
<polygon fill="none" stroke="none" points="-4,4 -4,-299 525.5,-299 525.5,4 -4,4"/>
<!-- User -->
<g id="node1" class="node"><title>User</title>
<path fill="none" stroke="black" d="M12,-143.5C12,-143.5 188,-143.5 188,-143.5 194,-143.5 200,-149.5 200,-155.5 200,-155.5 200,-282.5 200,-282.5 200,-288.5 194,-294.5 188,-294.5 188,-294.5 12,-294.5 12,-294.5 6,-294.5 0,-288.5 0,-282.5 0,-282.5 0,-155.5 0,-155.5 0,-149.5 6,-143.5 12,-143.5"/>
<text text-anchor="middle" x="100" y="-279.3" font-family="Times,serif" font-size="14.00">User</text>
<polyline fill="none" stroke="black" points="0,-271.5 200,-271.5 "/>
<text text-anchor="start" x="8" y="-256.3" font-family="Times,serif" font-size="14.00">id :INTEGER</text>
<text text-anchor="start" x="8" y="-241.3" font-family="Times,serif" font-size="14.00">email :varchar</text>
<text text-anchor="start" x="8" y="-226.3" font-family="Times,serif" font-size="14.00">encrypted_password :varchar</text>
<text text-anchor="start" x="8" y="-211.3" font-family="Times,serif" font-size="14.00">reset_password_token :varchar</text>
<text text-anchor="start" x="8" y="-196.3" font-family="Times,serif" font-size="14.00">reset_password_sent_at :datetime</text>
<text text-anchor="start" x="8" y="-181.3" font-family="Times,serif" font-size="14.00">remember_created_at :datetime</text>
<text text-anchor="start" x="8" y="-166.3" font-family="Times,serif" font-size="14.00">created_at :datetime</text>
<text text-anchor="start" x="8" y="-151.3" font-family="Times,serif" font-size="14.00">updated_at :datetime</text>
</g>
<!-- ApplicationRecord -->
<g id="node2" class="node"><title>ApplicationRecord</title>
<ellipse fill="none" stroke="black" cx="295" cy="-219" rx="77.1866" ry="18"/>
<text text-anchor="middle" x="295" y="-215.3" font-family="Times,serif" font-size="14.00">ApplicationRecord</text>
</g>
<!-- Movie -->
<g id="node3" class="node"><title>Movie</title>
<path fill="none" stroke="black" d="M402.5,-166C402.5,-166 509.5,-166 509.5,-166 515.5,-166 521.5,-172 521.5,-178 521.5,-178 521.5,-260 521.5,-260 521.5,-266 515.5,-272 509.5,-272 509.5,-272 402.5,-272 402.5,-272 396.5,-272 390.5,-266 390.5,-260 390.5,-260 390.5,-178 390.5,-178 390.5,-172 396.5,-166 402.5,-166"/>
<text text-anchor="middle" x="456" y="-256.8" font-family="Times,serif" font-size="14.00">Movie</text>
<polyline fill="none" stroke="black" points="390.5,-249 521.5,-249 "/>
<text text-anchor="start" x="398.5" y="-233.8" font-family="Times,serif" font-size="14.00">id :INTEGER</text>
<text text-anchor="start" x="398.5" y="-218.8" font-family="Times,serif" font-size="14.00">title :varchar</text>
<text text-anchor="start" x="398.5" y="-203.8" font-family="Times,serif" font-size="14.00">description :text</text>
<text text-anchor="start" x="398.5" y="-188.8" font-family="Times,serif" font-size="14.00">created_at :datetime</text>
<text text-anchor="start" x="398.5" y="-173.8" font-family="Times,serif" font-size="14.00">updated_at :datetime</text>
</g>
<!-- Impression -->
<g id="node4" class="node"><title>Impression</title>
<path fill="none" stroke="black" d="M402.5,-0.5C402.5,-0.5 509.5,-0.5 509.5,-0.5 515.5,-0.5 521.5,-6.5 521.5,-12.5 521.5,-12.5 521.5,-94.5 521.5,-94.5 521.5,-100.5 515.5,-106.5 509.5,-106.5 509.5,-106.5 402.5,-106.5 402.5,-106.5 396.5,-106.5 390.5,-100.5 390.5,-94.5 390.5,-94.5 390.5,-12.5 390.5,-12.5 390.5,-6.5 396.5,-0.5 402.5,-0.5"/>
<text text-anchor="middle" x="456" y="-91.3" font-family="Times,serif" font-size="14.00">Impression</text>
<polyline fill="none" stroke="black" points="390.5,-83.5 521.5,-83.5 "/>
<text text-anchor="start" x="398.5" y="-68.3" font-family="Times,serif" font-size="14.00">id :INTEGER</text>
<text text-anchor="start" x="398.5" y="-53.3" font-family="Times,serif" font-size="14.00">body :text</text>
<text text-anchor="start" x="398.5" y="-38.3" font-family="Times,serif" font-size="14.00">movie_id :integer</text>
<text text-anchor="start" x="398.5" y="-23.3" font-family="Times,serif" font-size="14.00">created_at :datetime</text>
<text text-anchor="start" x="398.5" y="-8.3" font-family="Times,serif" font-size="14.00">updated_at :datetime</text>
</g>
<!-- Movie&#45;&gt;Impression -->
<g id="edge1" class="edge"><title>Movie&#45;&gt;Impression</title>
<path fill="none" stroke="#10f36b" d="M456,-157.723C456,-144.393 456,-130.242 456,-116.832"/>
<ellipse fill="none" stroke="#10f36b" cx="456" cy="-161.818" rx="4" ry="4"/>
<polygon fill="#10f36b" stroke="#10f36b" points="456,-116.747 460.5,-106.747 456,-111.747 456,-106.747 456,-106.747 456,-106.747 456,-111.747 451.5,-106.747 456,-116.747 456,-116.747"/>
</g>
</g>
</svg>
