<?xml version="1.0" encoding="UTF-8" standalone="no"?>
<!DOCTYPE svg PUBLIC "-//W3C//DTD SVG 1.1//EN"
 "http://www.w3.org/Graphics/SVG/1.1/DTD/svg11.dtd">
<!-- Generated by graphviz version 2.38.0 (20140413.2041)
 -->
<!-- Title: models_diagram Pages: 1 -->
<svg width="530pt" height="160pt"
 viewBox="0.00 0.00 529.50 160.00" xmlns="http://www.w3.org/2000/svg" xmlns:xlink="http://www.w3.org/1999/xlink">
<g id="graph0" class="graph" transform="scale(1 1) rotate(0) translate(4 156)">
<title>models_diagram</title>
<polygon fill="none" stroke="none" points="-4,4 -4,-156 525.5,-156 525.5,4 -4,4"/>
<!-- User -->
<g id="node1" class="node"><title>User</title>
<path fill="none" stroke="black" d="M12,-0.5C12,-0.5 188,-0.5 188,-0.5 194,-0.5 200,-6.5 200,-12.5 200,-12.5 200,-139.5 200,-139.5 200,-145.5 194,-151.5 188,-151.5 188,-151.5 12,-151.5 12,-151.5 6,-151.5 0,-145.5 0,-139.5 0,-139.5 0,-12.5 0,-12.5 0,-6.5 6,-0.5 12,-0.5"/>
<text text-anchor="middle" x="100" y="-136.3" font-family="Times,serif" font-size="14.00">User</text>
<polyline fill="none" stroke="black" points="0,-128.5 200,-128.5 "/>
<text text-anchor="start" x="8" y="-113.3" font-family="Times,serif" font-size="14.00">id :INTEGER</text>
<text text-anchor="start" x="8" y="-98.3" font-family="Times,serif" font-size="14.00">email :varchar</text>
<text text-anchor="start" x="8" y="-83.3" font-family="Times,serif" font-size="14.00">encrypted_password :varchar</text>
<text text-anchor="start" x="8" y="-68.3" font-family="Times,serif" font-size="14.00">reset_password_token :varchar</text>
<text text-anchor="start" x="8" y="-53.3" font-family="Times,serif" font-size="14.00">reset_password_sent_at :datetime</text>
<text text-anchor="start" x="8" y="-38.3" font-family="Times,serif" font-size="14.00">remember_created_at :datetime</text>
<text text-anchor="start" x="8" y="-23.3" font-family="Times,serif" font-size="14.00">created_at :datetime</text>
<text text-anchor="start" x="8" y="-8.3" font-family="Times,serif" font-size="14.00">updated_at :datetime</text>
</g>
<!-- ApplicationRecord -->
<g id="node2" class="node"><title>ApplicationRecord</title>
<ellipse fill="none" stroke="black" cx="295" cy="-76" rx="77.1866" ry="18"/>
<text text-anchor="middle" x="295" y="-72.3" font-family="Times,serif" font-size="14.00">ApplicationRecord</text>
</g>
<!-- Movie -->
<g id="node3" class="node"><title>Movie</title>
<path fill="none" stroke="black" d="M402.5,-23C402.5,-23 509.5,-23 509.5,-23 515.5,-23 521.5,-29 521.5,-35 521.5,-35 521.5,-117 521.5,-117 521.5,-123 515.5,-129 509.5,-129 509.5,-129 402.5,-129 402.5,-129 396.5,-129 390.5,-123 390.5,-117 390.5,-117 390.5,-35 390.5,-35 390.5,-29 396.5,-23 402.5,-23"/>
<text text-anchor="middle" x="456" y="-113.8" font-family="Times,serif" font-size="14.00">Movie</text>
<polyline fill="none" stroke="black" points="390.5,-106 521.5,-106 "/>
<text text-anchor="start" x="398.5" y="-90.8" font-family="Times,serif" font-size="14.00">id :INTEGER</text>
<text text-anchor="start" x="398.5" y="-75.8" font-family="Times,serif" font-size="14.00">title :varchar</text>
<text text-anchor="start" x="398.5" y="-60.8" font-family="Times,serif" font-size="14.00">description :text</text>
<text text-anchor="start" x="398.5" y="-45.8" font-family="Times,serif" font-size="14.00">created_at :datetime</text>
<text text-anchor="start" x="398.5" y="-30.8" font-family="Times,serif" font-size="14.00">updated_at :datetime</text>
</g>
</g>
</svg>
