<?xml version="1.0" encoding="UTF-8"?>
<svg width="20px" height="20px" viewBox="97.6 84.8 200.8 194.4">

<g id="text-edit" stroke="none" stroke-width="1" fill="none" fill-rule="evenodd">
        <g id="edit" fill="#fff">
	<path d="M298.4,183.6v-41.8c0-25.7-12.9-57-53-57h-72.3c-4.8,0-10.4,2.4-14.5,5.6l-16.1,13.7c-1.6-0.8-3.2-0.8-4.8-0.8h-23.3c-8.8,0-16.9,7.2-16.9,16.1v61c0,8.8,8,14.5,16.9,14.5h23.3c0.8,0,1.6,0.8,1.6,0.8s0,0.8,0.8,1.6l19.3,20.1c0.8,0.8,1.6,2.4,1.6,3.2l11.2,47.4c1.6,6.4,8,11.2,15.3,11.2h19.3c7.2,0,13.7-5.6,13.7-13.7v-45.8h41c2.4,0,7.2,0,11.2-0.8C283.1,215.7,298.4,206.1,298.4,183.6z M118.5,120.2H137v56.2h-18.5V120.2z M279.9,183.6c0,12.9-8.8,16.1-10.4,16.1c-1.6,0-4,0.8-6.4,0.8h-45c-8,0-15.3,6.4-15.3,14.5v43.4h-11.2l-10.4-44.2c-0.8-4-4-8-6.4-11.2l-19.3-20.1l-0.8-1.6v-1.6v-61v-0.8l16.1-12.9c0.8,0,1.6-0.8,2.4-0.8h72.3c31.3,0,34.5,25.7,34.5,36.9V183.6z"></path>
</g>
</g>
</svg>