<?xml version="1.0" encoding="UTF-8"?>
<svg width="20px" height="20px" viewBox="61.9 84.9 200.8 194.4">

<g id="text-edit" stroke="none" stroke-width="1" fill="none" fill-rule="evenodd">
        <g id="edit" fill="#fff">
	<path d="M237,146c-4-0.8-8.8-0.8-11.2-0.8h-41V98.6c0-8-6.4-13.7-13.7-13.7h-19.3c-7.2,0-12.9,4.8-15.3,11.2l-11.2,47.4c0,0.8-1.6,3.2-1.6,3.2l-19.3,20.1c0,0-0.8,0.8-0.8,1.6c-0.8,0-1.6,0.8-1.6,0.8H78.8c-8.8,0-16.9,5.6-16.9,14.5v61c0,8.8,8,16.1,16.9,16.1h23.3c1.6,0,3.2-0.8,4.8-0.8l16.1,13.7c4,3.2,9.6,5.6,14.5,5.6h72.3c39.4,0,53-31.3,53-57v-41.8C261.1,158,245.8,148.4,237,146z M81.2,186.9h18.5v56.2H81.2L81.2,186.9L81.2,186.9z M243.4,222.3c0,11.2-3.2,36.9-34.5,36.9h-72.3c-0.8,0-2.4-0.8-2.4-0.8l-16.1-12.9v-0.8v-61v-1.6c0-0.8,0-1.6,0.8-1.6l19.3-20.1c3.2-3.2,5.6-7.2,6.4-11.2l10.4-44.2h9.6v43.4c0,8,7.2,14.5,15.3,14.5h45c2.4,0,5.6,0,6.4,0.8c1.6,0.8,10.4,4,10.4,16.1C243.4,180.5,243.4,222.3,243.4,222.3z"></path>
</g>
</g>
</svg>