<?xml version="1.0" encoding="UTF-8" standalone="no"?>
<!DOCTYPE svg PUBLIC "-//W3C//DTD SVG 1.1//EN"
 "http://www.w3.org/Graphics/SVG/1.1/DTD/svg11.dtd">
<!-- Generated by graphviz version 2.38.0 (20140413.2041)
 -->
<!-- Title: controllers_diagram Pages: 1 -->
<svg width="398pt" height="327pt"
 viewBox="0.00 0.00 398.00 327.00" xmlns="http://www.w3.org/2000/svg" xmlns:xlink="http://www.w3.org/1999/xlink">
<g id="graph0" class="graph" transform="scale(1 1) rotate(0) translate(100 211.5)">
<title>controllers_diagram</title>
<polygon fill="none" stroke="none" points="-100,115.5 -100,-211.5 298,-211.5 298,115.5 -100,115.5"/>
<!-- _diagram_info -->
<g id="node1" class="node"><title>_diagram_info</title>
<text text-anchor="start" x="88" y="16.4" font-family="Times,serif" font-size="13.00">Controllers diagram</text>
<text text-anchor="start" x="88" y="30.4" font-family="Times,serif" font-size="13.00">Date: Feb 07 2019 &#45; 20:30</text>
<text text-anchor="start" x="88" y="44.4" font-family="Times,serif" font-size="13.00">Migration version: 20190207153737</text>
<text text-anchor="start" x="88" y="58.4" font-family="Times,serif" font-size="13.00">Generated by RailRoady 1.5.3</text>
<text text-anchor="start" x="88" y="72.4" font-family="Times,serif" font-size="13.00">http://railroady.prestonlee.com</text>
</g>
<!-- ImpressionsController -->
<g id="node2" class="node"><title>ImpressionsController</title>
<path fill="none" stroke="black" d="M92,-33C92,-33 206,-33 206,-33 212,-33 218,-39 218,-45 218,-45 218,-129 218,-129 218,-135 212,-141 206,-141 206,-141 92,-141 92,-141 86,-141 80,-135 80,-129 80,-129 80,-45 80,-45 80,-39 86,-33 92,-33"/>
<text text-anchor="middle" x="149" y="-125.8" font-family="Times,serif" font-size="14.00">ImpressionsController</text>
<polyline fill="none" stroke="black" points="80,-118 218,-118 "/>
<text text-anchor="start" x="88" y="-102.8" font-family="Times,serif" font-size="14.00">create</text>
<polyline fill="none" stroke="black" points="80,-95 218,-95 "/>
<polyline fill="none" stroke="black" points="80,-71 218,-71 "/>
<text text-anchor="start" x="88" y="-55.8" font-family="Times,serif" font-size="14.00">_layout</text>
<text text-anchor="start" x="88" y="-40.8" font-family="Times,serif" font-size="14.00">impression_params</text>
</g>
<!-- ApplicationController -->
<g id="node3" class="node"><title>ApplicationController</title>
<path fill="none" stroke="black" d="M-84,-113C-84,-113 28,-113 28,-113 34,-113 40,-119 40,-125 40,-125 40,-195 40,-195 40,-201 34,-207 28,-207 28,-207 -84,-207 -84,-207 -90,-207 -96,-201 -96,-195 -96,-195 -96,-125 -96,-125 -96,-119 -90,-113 -84,-113"/>
<text text-anchor="middle" x="-28" y="-191.8" font-family="Times,serif" font-size="14.00">ApplicationController</text>
<polyline fill="none" stroke="black" points="-96,-184 40,-184 "/>
<polyline fill="none" stroke="black" points="-96,-160 40,-160 "/>
<polyline fill="none" stroke="black" points="-96,-136 40,-136 "/>
<text text-anchor="start" x="-88" y="-120.8" font-family="Times,serif" font-size="14.00">_layout</text>
</g>
<!-- MoviesController -->
<g id="node4" class="node"><title>MoviesController</title>
<path fill="none" stroke="black" d="M-51.5,111C-51.5,111 37.5,111 37.5,111 43.5,111 49.5,105 49.5,99 49.5,99 49.5,-75 49.5,-75 49.5,-81 43.5,-87 37.5,-87 37.5,-87 -51.5,-87 -51.5,-87 -57.5,-87 -63.5,-81 -63.5,-75 -63.5,-75 -63.5,99 -63.5,99 -63.5,105 -57.5,111 -51.5,111"/>
<text text-anchor="middle" x="-7" y="-71.8" font-family="Times,serif" font-size="14.00">MoviesController</text>
<polyline fill="none" stroke="black" points="-63.5,-64 49.5,-64 "/>
<text text-anchor="start" x="-55.5" y="-48.8" font-family="Times,serif" font-size="14.00">create</text>
<text text-anchor="start" x="-55.5" y="-33.8" font-family="Times,serif" font-size="14.00">edit</text>
<text text-anchor="start" x="-55.5" y="-18.8" font-family="Times,serif" font-size="14.00">index</text>
<text text-anchor="start" x="-55.5" y="-3.8" font-family="Times,serif" font-size="14.00">new</text>
<text text-anchor="start" x="-55.5" y="11.2" font-family="Times,serif" font-size="14.00">show</text>
<text text-anchor="start" x="-55.5" y="26.2" font-family="Times,serif" font-size="14.00">update</text>
<polyline fill="none" stroke="black" points="-63.5,34 49.5,34 "/>
<polyline fill="none" stroke="black" points="-63.5,58 49.5,58 "/>
<text text-anchor="start" x="-55.5" y="73.2" font-family="Times,serif" font-size="14.00">_layout</text>
<text text-anchor="start" x="-55.5" y="88.2" font-family="Times,serif" font-size="14.00">movie_params</text>
<text text-anchor="start" x="-55.5" y="103.2" font-family="Times,serif" font-size="14.00">set_movie</text>
</g>
</g>
</svg>
