<?xml version="1.0" encoding="UTF-8" standalone="no"?>
<!DOCTYPE svg PUBLIC "-//W3C//DTD SVG 1.1//EN"
 "http://www.w3.org/Graphics/SVG/1.1/DTD/svg11.dtd">
<!-- Generated by graphviz version 2.38.0 (20140413.2041)
 -->
<!-- Title: controllers_diagram Pages: 1 -->
<svg width="1080pt" height="861pt"
 viewBox="0.00 0.00 1080.41 860.93" xmlns="http://www.w3.org/2000/svg" xmlns:xlink="http://www.w3.org/1999/xlink">
<g id="graph0" class="graph" transform="scale(1 1) rotate(0) translate(400.408 395.044)">
<title>controllers_diagram</title>
<polygon fill="none" stroke="none" points="-400.408,465.891 -400.408,-395.044 680,-395.044 680,465.891 -400.408,465.891"/>
<!-- _diagram_info -->
<g id="node1" class="node"><title>_diagram_info</title>
<text text-anchor="start" x="470" y="-261.6" font-family="Times,serif" font-size="13.00">Controllers diagram</text>
<text text-anchor="start" x="470" y="-247.6" font-family="Times,serif" font-size="13.00">Date: Feb 07 2019 &#45; 11:50</text>
<text text-anchor="start" x="470" y="-233.6" font-family="Times,serif" font-size="13.00">Migration version: 20190206193622</text>
<text text-anchor="start" x="470" y="-219.6" font-family="Times,serif" font-size="13.00">Generated by RailRoady 1.5.3</text>
<text text-anchor="start" x="470" y="-205.6" font-family="Times,serif" font-size="13.00">http://railroady.prestonlee.com</text>
</g>
<!-- ApplicationController -->
<g id="node2" class="node"><title>ApplicationController</title>
<path fill="none" stroke="black" d="M-27.5903,-216.712C-27.5903,-216.712 84.4097,-216.712 84.4097,-216.712 90.4097,-216.712 96.4097,-222.712 96.4097,-228.712 96.4097,-228.712 96.4097,-298.712 96.4097,-298.712 96.4097,-304.712 90.4097,-310.712 84.4097,-310.712 84.4097,-310.712 -27.5903,-310.712 -27.5903,-310.712 -33.5903,-310.712 -39.5903,-304.712 -39.5903,-298.712 -39.5903,-298.712 -39.5903,-228.712 -39.5903,-228.712 -39.5903,-222.712 -33.5903,-216.712 -27.5903,-216.712"/>
<text text-anchor="middle" x="28.4097" y="-295.512" font-family="Times,serif" font-size="14.00">ApplicationController</text>
<polyline fill="none" stroke="black" points="-39.5903,-287.712 96.4097,-287.712 "/>
<polyline fill="none" stroke="black" points="-39.5903,-263.712 96.4097,-263.712 "/>
<polyline fill="none" stroke="black" points="-39.5903,-239.712 96.4097,-239.712 "/>
<text text-anchor="start" x="-31.5903" y="-224.512" font-family="Times,serif" font-size="14.00">_layout</text>
</g>
<!-- MoviesController -->
<g id="node3" class="node"><title>MoviesController</title>
<path fill="none" stroke="black" d="M257.744,-192.544C257.744,-192.544 346.744,-192.544 346.744,-192.544 352.744,-192.544 358.744,-198.544 358.744,-204.544 358.744,-204.544 358.744,-378.544 358.744,-378.544 358.744,-384.544 352.744,-390.544 346.744,-390.544 346.744,-390.544 257.744,-390.544 257.744,-390.544 251.744,-390.544 245.744,-384.544 245.744,-378.544 245.744,-378.544 245.744,-204.544 245.744,-204.544 245.744,-198.544 251.744,-192.544 257.744,-192.544"/>
<text text-anchor="middle" x="302.244" y="-375.344" font-family="Times,serif" font-size="14.00">MoviesController</text>
<polyline fill="none" stroke="black" points="245.744,-367.544 358.744,-367.544 "/>
<text text-anchor="start" x="253.744" y="-352.344" font-family="Times,serif" font-size="14.00">create</text>
<text text-anchor="start" x="253.744" y="-337.344" font-family="Times,serif" font-size="14.00">edit</text>
<text text-anchor="start" x="253.744" y="-322.344" font-family="Times,serif" font-size="14.00">index</text>
<text text-anchor="start" x="253.744" y="-307.344" font-family="Times,serif" font-size="14.00">new</text>
<text text-anchor="start" x="253.744" y="-292.344" font-family="Times,serif" font-size="14.00">show</text>
<text text-anchor="start" x="253.744" y="-277.344" font-family="Times,serif" font-size="14.00">update</text>
<polyline fill="none" stroke="black" points="245.744,-269.544 358.744,-269.544 "/>
<polyline fill="none" stroke="black" points="245.744,-245.544 358.744,-245.544 "/>
<text text-anchor="start" x="253.744" y="-230.344" font-family="Times,serif" font-size="14.00">_layout</text>
<text text-anchor="start" x="253.744" y="-215.344" font-family="Times,serif" font-size="14.00">movie_params</text>
<text text-anchor="start" x="253.744" y="-200.344" font-family="Times,serif" font-size="14.00">set_movie</text>
</g>
<!-- ApplicationController&#45;&gt;MoviesController -->
<g id="edge1" class="edge"><title>ApplicationController&#45;&gt;MoviesController</title>
<path fill="none" stroke="black" d="M96.4509,-270.628C142.386,-275.297 202.307,-281.387 245.634,-285.79"/>
</g>
<!-- DeviseController -->
<g id="node4" class="node"><title>DeviseController</title>
<path fill="none" stroke="black" d="M-55.1559,243.872C-55.1559,243.872 111.844,243.872 111.844,243.872 117.844,243.872 123.844,237.872 123.844,231.872 123.844,231.872 123.844,-136.128 123.844,-136.128 123.844,-142.128 117.844,-148.128 111.844,-148.128 111.844,-148.128 -55.1559,-148.128 -55.1559,-148.128 -61.1559,-148.128 -67.1559,-142.128 -67.1559,-136.128 -67.1559,-136.128 -67.1559,231.872 -67.1559,231.872 -67.1559,237.872 -61.1559,243.872 -55.1559,243.872"/>
<text text-anchor="middle" x="28.3441" y="-132.928" font-family="Times,serif" font-size="14.00">DeviseController</text>
<polyline fill="none" stroke="black" points="-67.1559,-125.128 123.844,-125.128 "/>
<text text-anchor="start" x="-59.1559" y="-109.928" font-family="Times,serif" font-size="14.00">_prefixes</text>
<polyline fill="none" stroke="black" points="-67.1559,-102.128 123.844,-102.128 "/>
<text text-anchor="start" x="-59.1559" y="-86.9282" font-family="Times,serif" font-size="14.00">assert_is_devise_resource!</text>
<text text-anchor="start" x="-59.1559" y="-71.9282" font-family="Times,serif" font-size="14.00">clean_up_passwords</text>
<text text-anchor="start" x="-59.1559" y="-56.9282" font-family="Times,serif" font-size="14.00">devise_i18n_options</text>
<text text-anchor="start" x="-59.1559" y="-41.9282" font-family="Times,serif" font-size="14.00">devise_mapping</text>
<text text-anchor="start" x="-59.1559" y="-26.9282" font-family="Times,serif" font-size="14.00">find_message</text>
<text text-anchor="start" x="-59.1559" y="-11.9282" font-family="Times,serif" font-size="14.00">navigational_formats</text>
<text text-anchor="start" x="-59.1559" y="3.07179" font-family="Times,serif" font-size="14.00">require_no_authentication</text>
<text text-anchor="start" x="-59.1559" y="18.0718" font-family="Times,serif" font-size="14.00">resource</text>
<text text-anchor="start" x="-59.1559" y="33.0718" font-family="Times,serif" font-size="14.00">resource=</text>
<text text-anchor="start" x="-59.1559" y="48.0718" font-family="Times,serif" font-size="14.00">resource_class</text>
<text text-anchor="start" x="-59.1559" y="63.0718" font-family="Times,serif" font-size="14.00">resource_name</text>
<text text-anchor="start" x="-59.1559" y="78.0718" font-family="Times,serif" font-size="14.00">resource_params</text>
<text text-anchor="start" x="-59.1559" y="93.0718" font-family="Times,serif" font-size="14.00">respond_with_navigational</text>
<text text-anchor="start" x="-59.1559" y="108.072" font-family="Times,serif" font-size="14.00">scope_name</text>
<text text-anchor="start" x="-59.1559" y="123.072" font-family="Times,serif" font-size="14.00">set_flash_message</text>
<text text-anchor="start" x="-59.1559" y="138.072" font-family="Times,serif" font-size="14.00">set_flash_message!</text>
<text text-anchor="start" x="-59.1559" y="153.072" font-family="Times,serif" font-size="14.00">set_minimum_password_length</text>
<text text-anchor="start" x="-59.1559" y="168.072" font-family="Times,serif" font-size="14.00">signed_in_resource</text>
<text text-anchor="start" x="-59.1559" y="183.072" font-family="Times,serif" font-size="14.00">successfully_sent?</text>
<text text-anchor="start" x="-59.1559" y="198.072" font-family="Times,serif" font-size="14.00">translation_scope</text>
<text text-anchor="start" x="-59.1559" y="213.072" font-family="Times,serif" font-size="14.00">unknown_action!</text>
<polyline fill="none" stroke="black" points="-67.1559,220.872 123.844,220.872 "/>
<text text-anchor="start" x="-59.1559" y="236.072" font-family="Times,serif" font-size="14.00">_layout</text>
</g>
<!-- ApplicationController&#45;&gt;DeviseController -->
<g id="edge2" class="edge"><title>ApplicationController&#45;&gt;DeviseController</title>
<path fill="none" stroke="black" d="M28.3998,-216.39C28.3957,-197.152 28.3907,-173.534 28.3854,-148.406"/>
</g>
<!-- Devise::PasswordsController -->
<g id="node5" class="node"><title>Devise::PasswordsController</title>
<path fill="none" stroke="black" d="M-384.408,-192.679C-384.408,-192.679 -106.408,-192.679 -106.408,-192.679 -100.408,-192.679 -94.4085,-198.679 -94.4085,-204.679 -94.4085,-204.679 -94.4085,-377.679 -94.4085,-377.679 -94.4085,-383.679 -100.408,-389.679 -106.408,-389.679 -106.408,-389.679 -384.408,-389.679 -384.408,-389.679 -390.408,-389.679 -396.408,-383.679 -396.408,-377.679 -396.408,-377.679 -396.408,-204.679 -396.408,-204.679 -396.408,-198.679 -390.408,-192.679 -384.408,-192.679"/>
<text text-anchor="middle" x="-245.408" y="-374.479" font-family="Times,serif" font-size="14.00">Devise::PasswordsController</text>
<polyline fill="none" stroke="black" points="-396.408,-366.679 -94.4085,-366.679 "/>
<text text-anchor="start" x="-388.408" y="-351.479" font-family="Times,serif" font-size="14.00">create</text>
<text text-anchor="start" x="-388.408" y="-336.479" font-family="Times,serif" font-size="14.00">edit</text>
<text text-anchor="start" x="-388.408" y="-321.479" font-family="Times,serif" font-size="14.00">new</text>
<text text-anchor="start" x="-388.408" y="-306.479" font-family="Times,serif" font-size="14.00">update</text>
<polyline fill="none" stroke="black" points="-396.408,-298.679 -94.4085,-298.679 "/>
<text text-anchor="start" x="-388.408" y="-283.479" font-family="Times,serif" font-size="14.00">after_resetting_password_path_for</text>
<text text-anchor="start" x="-388.408" y="-268.479" font-family="Times,serif" font-size="14.00">after_sending_reset_password_instructions_path_for</text>
<text text-anchor="start" x="-388.408" y="-253.479" font-family="Times,serif" font-size="14.00">assert_reset_token_passed</text>
<text text-anchor="start" x="-388.408" y="-238.479" font-family="Times,serif" font-size="14.00">translation_scope</text>
<text text-anchor="start" x="-388.408" y="-223.479" font-family="Times,serif" font-size="14.00">unlockable?</text>
<polyline fill="none" stroke="black" points="-396.408,-215.679 -94.4085,-215.679 "/>
<text text-anchor="start" x="-388.408" y="-200.479" font-family="Times,serif" font-size="14.00">_layout</text>
</g>
<!-- DeviseController&#45;&gt;Devise::PasswordsController -->
<g id="edge3" class="edge"><title>DeviseController&#45;&gt;Devise::PasswordsController</title>
<path fill="none" stroke="black" d="M-67.4013,-70.7117C-99.5487,-110.527 -135.033,-154.476 -165.806,-192.588"/>
</g>
<!-- Devise::OmniauthCallbacksController -->
<g id="node6" class="node"><title>Devise::OmniauthCallbacksController</title>
<path fill="none" stroke="black" d="M202.472,75.0097C202.472,75.0097 403.472,75.0097 403.472,75.0097 409.472,75.0097 415.472,69.0097 415.472,63.0097 415.472,63.0097 415.472,-64.9903 415.472,-64.9903 415.472,-70.9903 409.472,-76.9903 403.472,-76.9903 403.472,-76.9903 202.472,-76.9903 202.472,-76.9903 196.472,-76.9903 190.472,-70.9903 190.472,-64.9903 190.472,-64.9903 190.472,63.0097 190.472,63.0097 190.472,69.0097 196.472,75.0097 202.472,75.0097"/>
<text text-anchor="middle" x="302.972" y="-61.7903" font-family="Times,serif" font-size="14.00">Devise::OmniauthCallbacksController</text>
<polyline fill="none" stroke="black" points="190.472,-53.9903 415.472,-53.9903 "/>
<text text-anchor="start" x="198.472" y="-38.7903" font-family="Times,serif" font-size="14.00">failure</text>
<text text-anchor="start" x="198.472" y="-23.7903" font-family="Times,serif" font-size="14.00">passthru</text>
<polyline fill="none" stroke="black" points="190.472,-15.9903 415.472,-15.9903 "/>
<text text-anchor="start" x="198.472" y="-0.790255" font-family="Times,serif" font-size="14.00">after_omniauth_failure_path_for</text>
<text text-anchor="start" x="198.472" y="14.2097" font-family="Times,serif" font-size="14.00">failed_strategy</text>
<text text-anchor="start" x="198.472" y="29.2097" font-family="Times,serif" font-size="14.00">failure_message</text>
<text text-anchor="start" x="198.472" y="44.2097" font-family="Times,serif" font-size="14.00">translation_scope</text>
<polyline fill="none" stroke="black" points="190.472,52.0097 415.472,52.0097 "/>
<text text-anchor="start" x="198.472" y="67.2097" font-family="Times,serif" font-size="14.00">_layout</text>
</g>
<!-- DeviseController&#45;&gt;Devise::OmniauthCallbacksController -->
<g id="edge4" class="edge"><title>DeviseController&#45;&gt;Devise::OmniauthCallbacksController</title>
<path fill="none" stroke="black" d="M124.01,30.8508C145.373,27.05 168.22,22.9849 190.201,19.0741"/>
</g>
<!-- Devise::ConfirmationsController -->
<g id="node7" class="node"><title>Devise::ConfirmationsController</title>
<path fill="none" stroke="black" d="M-384.335,75.8318C-384.335,75.8318 -108.335,75.8318 -108.335,75.8318 -102.335,75.8318 -96.335,69.8318 -96.335,63.8318 -96.335,63.8318 -96.335,-64.1682 -96.335,-64.1682 -96.335,-70.1682 -102.335,-76.1682 -108.335,-76.1682 -108.335,-76.1682 -384.335,-76.1682 -384.335,-76.1682 -390.335,-76.1682 -396.335,-70.1682 -396.335,-64.1682 -396.335,-64.1682 -396.335,63.8318 -396.335,63.8318 -396.335,69.8318 -390.335,75.8318 -384.335,75.8318"/>
<text text-anchor="middle" x="-246.335" y="-60.9682" font-family="Times,serif" font-size="14.00">Devise::ConfirmationsController</text>
<polyline fill="none" stroke="black" points="-396.335,-53.1682 -96.335,-53.1682 "/>
<text text-anchor="start" x="-388.335" y="-37.9682" font-family="Times,serif" font-size="14.00">create</text>
<text text-anchor="start" x="-388.335" y="-22.9682" font-family="Times,serif" font-size="14.00">new</text>
<text text-anchor="start" x="-388.335" y="-7.96818" font-family="Times,serif" font-size="14.00">show</text>
<polyline fill="none" stroke="black" points="-396.335,-0.168178 -96.335,-0.168178 "/>
<text text-anchor="start" x="-388.335" y="15.0318" font-family="Times,serif" font-size="14.00">after_confirmation_path_for</text>
<text text-anchor="start" x="-388.335" y="30.0318" font-family="Times,serif" font-size="14.00">after_resending_confirmation_instructions_path_for</text>
<text text-anchor="start" x="-388.335" y="45.0318" font-family="Times,serif" font-size="14.00">translation_scope</text>
<polyline fill="none" stroke="black" points="-396.335,52.8318 -96.335,52.8318 "/>
<text text-anchor="start" x="-388.335" y="68.0318" font-family="Times,serif" font-size="14.00">_layout</text>
</g>
<!-- DeviseController&#45;&gt;Devise::ConfirmationsController -->
<g id="edge5" class="edge"><title>DeviseController&#45;&gt;Devise::ConfirmationsController</title>
<path fill="none" stroke="black" d="M-67.3398,31.1372C-76.6295,29.5125 -86.2,27.8386 -95.858,26.1495"/>
</g>
<!-- Devise::SessionsController -->
<g id="node8" class="node"><title>Devise::SessionsController</title>
<path fill="none" stroke="black" d="M-319.122,409.496C-319.122,409.496 -179.122,409.496 -179.122,409.496 -173.122,409.496 -167.122,403.496 -167.122,397.496 -167.122,397.496 -167.122,209.496 -167.122,209.496 -167.122,203.496 -173.122,197.496 -179.122,197.496 -179.122,197.496 -319.122,197.496 -319.122,197.496 -325.122,197.496 -331.122,203.496 -331.122,209.496 -331.122,209.496 -331.122,397.496 -331.122,397.496 -331.122,403.496 -325.122,409.496 -319.122,409.496"/>
<text text-anchor="middle" x="-249.122" y="212.696" font-family="Times,serif" font-size="14.00">Devise::SessionsController</text>
<polyline fill="none" stroke="black" points="-331.122,220.496 -167.122,220.496 "/>
<text text-anchor="start" x="-323.122" y="235.696" font-family="Times,serif" font-size="14.00">create</text>
<text text-anchor="start" x="-323.122" y="250.696" font-family="Times,serif" font-size="14.00">destroy</text>
<text text-anchor="start" x="-323.122" y="265.696" font-family="Times,serif" font-size="14.00">new</text>
<polyline fill="none" stroke="black" points="-331.122,273.496 -167.122,273.496 "/>
<text text-anchor="start" x="-323.122" y="288.696" font-family="Times,serif" font-size="14.00">auth_options</text>
<text text-anchor="start" x="-323.122" y="303.696" font-family="Times,serif" font-size="14.00">serialize_options</text>
<text text-anchor="start" x="-323.122" y="318.696" font-family="Times,serif" font-size="14.00">sign_in_params</text>
<text text-anchor="start" x="-323.122" y="333.696" font-family="Times,serif" font-size="14.00">translation_scope</text>
<polyline fill="none" stroke="black" points="-331.122,341.496 -167.122,341.496 "/>
<text text-anchor="start" x="-323.122" y="356.696" font-family="Times,serif" font-size="14.00">_layout</text>
<text text-anchor="start" x="-323.122" y="371.696" font-family="Times,serif" font-size="14.00">all_signed_out?</text>
<text text-anchor="start" x="-323.122" y="386.696" font-family="Times,serif" font-size="14.00">respond_to_on_destroy</text>
<text text-anchor="start" x="-323.122" y="401.696" font-family="Times,serif" font-size="14.00">verify_signed_out_user</text>
</g>
<!-- DeviseController&#45;&gt;Devise::SessionsController -->
<g id="edge6" class="edge"><title>DeviseController&#45;&gt;Devise::SessionsController</title>
<path fill="none" stroke="black" d="M-67.5327,136.201C-99.9575,166.073 -135.846,199.136 -167.097,227.927"/>
</g>
<!-- Devise::UnlocksController -->
<g id="node9" class="node"><title>Devise::UnlocksController</title>
<path fill="none" stroke="black" d="M-86.6145,405.349C-86.6145,405.349 145.386,405.349 145.386,405.349 151.386,405.349 157.386,399.349 157.386,393.349 157.386,393.349 157.386,265.349 157.386,265.349 157.386,259.349 151.386,253.349 145.386,253.349 145.386,253.349 -86.6145,253.349 -86.6145,253.349 -92.6145,253.349 -98.6145,259.349 -98.6145,265.349 -98.6145,265.349 -98.6145,393.349 -98.6145,393.349 -98.6145,399.349 -92.6145,405.349 -86.6145,405.349"/>
<text text-anchor="middle" x="29.3855" y="268.549" font-family="Times,serif" font-size="14.00">Devise::UnlocksController</text>
<polyline fill="none" stroke="black" points="-98.6145,276.349 157.386,276.349 "/>
<text text-anchor="start" x="-90.6145" y="291.549" font-family="Times,serif" font-size="14.00">create</text>
<text text-anchor="start" x="-90.6145" y="306.549" font-family="Times,serif" font-size="14.00">new</text>
<text text-anchor="start" x="-90.6145" y="321.549" font-family="Times,serif" font-size="14.00">show</text>
<polyline fill="none" stroke="black" points="-98.6145,329.349 157.386,329.349 "/>
<text text-anchor="start" x="-90.6145" y="344.549" font-family="Times,serif" font-size="14.00">after_sending_unlock_instructions_path_for</text>
<text text-anchor="start" x="-90.6145" y="359.549" font-family="Times,serif" font-size="14.00">after_unlock_path_for</text>
<text text-anchor="start" x="-90.6145" y="374.549" font-family="Times,serif" font-size="14.00">translation_scope</text>
<polyline fill="none" stroke="black" points="-98.6145,382.349 157.386,382.349 "/>
<text text-anchor="start" x="-90.6145" y="397.549" font-family="Times,serif" font-size="14.00">_layout</text>
</g>
<!-- DeviseController&#45;&gt;Devise::UnlocksController -->
<g id="edge7" class="edge"><title>DeviseController&#45;&gt;Devise::UnlocksController</title>
<path fill="none" stroke="black" d="M29.0702,244.133C29.0816,247.205 29.0928,250.235 29.1038,253.216"/>
</g>
<!-- Devise::RegistrationsController -->
<g id="node10" class="node"><title>Devise::RegistrationsController</title>
<path fill="none" stroke="black" d="M222.342,461.391C222.342,461.391 391.342,461.391 391.342,461.391 397.342,461.391 403.342,455.391 403.342,449.391 403.342,449.391 403.342,156.391 403.342,156.391 403.342,150.391 397.342,144.391 391.342,144.391 391.342,144.391 222.342,144.391 222.342,144.391 216.342,144.391 210.342,150.391 210.342,156.391 210.342,156.391 210.342,449.391 210.342,449.391 210.342,455.391 216.342,461.391 222.342,461.391"/>
<text text-anchor="middle" x="306.842" y="159.591" font-family="Times,serif" font-size="14.00">Devise::RegistrationsController</text>
<polyline fill="none" stroke="black" points="210.342,167.391 403.342,167.391 "/>
<text text-anchor="start" x="218.342" y="182.591" font-family="Times,serif" font-size="14.00">cancel</text>
<text text-anchor="start" x="218.342" y="197.591" font-family="Times,serif" font-size="14.00">create</text>
<text text-anchor="start" x="218.342" y="212.591" font-family="Times,serif" font-size="14.00">destroy</text>
<text text-anchor="start" x="218.342" y="227.591" font-family="Times,serif" font-size="14.00">edit</text>
<text text-anchor="start" x="218.342" y="242.591" font-family="Times,serif" font-size="14.00">new</text>
<text text-anchor="start" x="218.342" y="257.591" font-family="Times,serif" font-size="14.00">update</text>
<polyline fill="none" stroke="black" points="210.342,265.391 403.342,265.391 "/>
<text text-anchor="start" x="218.342" y="280.591" font-family="Times,serif" font-size="14.00">account_update_params</text>
<text text-anchor="start" x="218.342" y="295.591" font-family="Times,serif" font-size="14.00">after_inactive_sign_up_path_for</text>
<text text-anchor="start" x="218.342" y="310.591" font-family="Times,serif" font-size="14.00">after_sign_up_path_for</text>
<text text-anchor="start" x="218.342" y="325.591" font-family="Times,serif" font-size="14.00">after_update_path_for</text>
<text text-anchor="start" x="218.342" y="340.591" font-family="Times,serif" font-size="14.00">authenticate_scope!</text>
<text text-anchor="start" x="218.342" y="355.591" font-family="Times,serif" font-size="14.00">build_resource</text>
<text text-anchor="start" x="218.342" y="370.591" font-family="Times,serif" font-size="14.00">sign_up</text>
<text text-anchor="start" x="218.342" y="385.591" font-family="Times,serif" font-size="14.00">sign_up_params</text>
<text text-anchor="start" x="218.342" y="400.591" font-family="Times,serif" font-size="14.00">translation_scope</text>
<text text-anchor="start" x="218.342" y="415.591" font-family="Times,serif" font-size="14.00">update_needs_confirmation?</text>
<text text-anchor="start" x="218.342" y="430.591" font-family="Times,serif" font-size="14.00">update_resource</text>
<polyline fill="none" stroke="black" points="210.342,438.391 403.342,438.391 "/>
<text text-anchor="start" x="218.342" y="453.591" font-family="Times,serif" font-size="14.00">_layout</text>
</g>
<!-- DeviseController&#45;&gt;Devise::RegistrationsController -->
<g id="edge8" class="edge"><title>DeviseController&#45;&gt;Devise::RegistrationsController</title>
<path fill="none" stroke="black" d="M124.187,135.635C151.88,160.992 182.117,188.68 209.877,214.1"/>
</g>
</g>
</svg>
