<?xml version="1.0" encoding="UTF-8" standalone="no"?>
<!DOCTYPE svg PUBLIC "-//W3C//DTD SVG 1.1//EN"
 "http://www.w3.org/Graphics/SVG/1.1/DTD/svg11.dtd">
<!-- Generated by graphviz version 2.38.0 (20140413.2041)
 -->
<!-- Title: models_diagram Pages: 1 -->
<svg width="475pt" height="274pt"
 viewBox="0.00 0.00 474.50 274.00" xmlns="http://www.w3.org/2000/svg" xmlns:xlink="http://www.w3.org/1999/xlink">
<g id="graph0" class="graph" transform="scale(1 1) rotate(0) translate(4 270)">
<title>models_diagram</title>
<polygon fill="none" stroke="none" points="-4,4 -4,-270 470.5,-270 470.5,4 -4,4"/>
<!-- _diagram_info -->
<g id="node1" class="node"><title>_diagram_info</title>
<text text-anchor="start" x="8" y="-251.6" font-family="Times,serif" font-size="13.00">Models diagram</text>
<text text-anchor="start" x="8" y="-237.6" font-family="Times,serif" font-size="13.00">Date: Feb 07 2019 &#45; 11:50</text>
<text text-anchor="start" x="8" y="-223.6" font-family="Times,serif" font-size="13.00">Migration version: 20190206193622</text>
<text text-anchor="start" x="8" y="-209.6" font-family="Times,serif" font-size="13.00">Generated by RailRoady 1.5.3</text>
<text text-anchor="start" x="8" y="-195.6" font-family="Times,serif" font-size="13.00">http://railroady.prestonlee.com</text>
</g>
<!-- User -->
<g id="node2" class="node"><title>User</title>
<path fill="none" stroke="black" d="M129,-0.5C129,-0.5 305,-0.5 305,-0.5 311,-0.5 317,-6.5 317,-12.5 317,-12.5 317,-139.5 317,-139.5 317,-145.5 311,-151.5 305,-151.5 305,-151.5 129,-151.5 129,-151.5 123,-151.5 117,-145.5 117,-139.5 117,-139.5 117,-12.5 117,-12.5 117,-6.5 123,-0.5 129,-0.5"/>
<text text-anchor="middle" x="217" y="-136.3" font-family="Times,serif" font-size="14.00">User</text>
<polyline fill="none" stroke="black" points="117,-128.5 317,-128.5 "/>
<text text-anchor="start" x="125" y="-113.3" font-family="Times,serif" font-size="14.00">id :INTEGER</text>
<text text-anchor="start" x="125" y="-98.3" font-family="Times,serif" font-size="14.00">email :varchar</text>
<text text-anchor="start" x="125" y="-83.3" font-family="Times,serif" font-size="14.00">encrypted_password :varchar</text>
<text text-anchor="start" x="125" y="-68.3" font-family="Times,serif" font-size="14.00">reset_password_token :varchar</text>
<text text-anchor="start" x="125" y="-53.3" font-family="Times,serif" font-size="14.00">reset_password_sent_at :datetime</text>
<text text-anchor="start" x="125" y="-38.3" font-family="Times,serif" font-size="14.00">remember_created_at :datetime</text>
<text text-anchor="start" x="125" y="-23.3" font-family="Times,serif" font-size="14.00">created_at :datetime</text>
<text text-anchor="start" x="125" y="-8.3" font-family="Times,serif" font-size="14.00">updated_at :datetime</text>
</g>
<!-- ApplicationRecord -->
<g id="node3" class="node"><title>ApplicationRecord</title>
<ellipse fill="none" stroke="black" cx="309" cy="-227" rx="77.1866" ry="18"/>
<text text-anchor="middle" x="309" y="-223.3" font-family="Times,serif" font-size="14.00">ApplicationRecord</text>
</g>
<!-- ApplicationRecord&#45;&gt;User -->
<g id="edge1" class="edge"><title>ApplicationRecord&#45;&gt;User</title>
<path fill="none" stroke="black" d="M298.446,-208.908C289.62,-194.613 276.377,-173.165 263.12,-151.694"/>
</g>
<!-- Movie -->
<g id="node4" class="node"><title>Movie</title>
<path fill="none" stroke="black" d="M347.5,-23C347.5,-23 454.5,-23 454.5,-23 460.5,-23 466.5,-29 466.5,-35 466.5,-35 466.5,-117 466.5,-117 466.5,-123 460.5,-129 454.5,-129 454.5,-129 347.5,-129 347.5,-129 341.5,-129 335.5,-123 335.5,-117 335.5,-117 335.5,-35 335.5,-35 335.5,-29 341.5,-23 347.5,-23"/>
<text text-anchor="middle" x="401" y="-113.8" font-family="Times,serif" font-size="14.00">Movie</text>
<polyline fill="none" stroke="black" points="335.5,-106 466.5,-106 "/>
<text text-anchor="start" x="343.5" y="-90.8" font-family="Times,serif" font-size="14.00">id :INTEGER</text>
<text text-anchor="start" x="343.5" y="-75.8" font-family="Times,serif" font-size="14.00">title :varchar</text>
<text text-anchor="start" x="343.5" y="-60.8" font-family="Times,serif" font-size="14.00">description :text</text>
<text text-anchor="start" x="343.5" y="-45.8" font-family="Times,serif" font-size="14.00">created_at :datetime</text>
<text text-anchor="start" x="343.5" y="-30.8" font-family="Times,serif" font-size="14.00">updated_at :datetime</text>
</g>
<!-- ApplicationRecord&#45;&gt;Movie -->
<g id="edge2" class="edge"><title>ApplicationRecord&#45;&gt;Movie</title>
<path fill="none" stroke="black" d="M319.554,-208.908C331.495,-189.568 351.522,-157.133 368.728,-129.267"/>
</g>
</g>
</svg>
