<?xml version="1.0" encoding="UTF-8" standalone="no"?>
<!DOCTYPE svg PUBLIC "-//W3C//DTD SVG 1.1//EN"
 "http://www.w3.org/Graphics/SVG/1.1/DTD/svg11.dtd">
<!-- Generated by graphviz version 2.38.0 (20140413.2041)
 -->
<!-- Title: models_diagram Pages: 1 -->
<svg width="570pt" height="158pt"
 viewBox="0.00 0.00 570.05 158.00" xmlns="http://www.w3.org/2000/svg" xmlns:xlink="http://www.w3.org/1999/xlink">
<g id="graph0" class="graph" transform="scale(1 1) rotate(0) translate(4 154)">
<title>models_diagram</title>
<polygon fill="none" stroke="none" points="-4,4 -4,-154 566.046,-154 566.046,4 -4,4"/>
<!-- _diagram_info -->
<g id="node1" class="node"><title>_diagram_info</title>
<text text-anchor="start" x="8" y="-135.6" font-family="Times,serif" font-size="13.00">Models diagram</text>
<text text-anchor="start" x="8" y="-121.6" font-family="Times,serif" font-size="13.00">Date: Feb 07 2019 &#45; 20:30</text>
<text text-anchor="start" x="8" y="-107.6" font-family="Times,serif" font-size="13.00">Migration version: 20190207153737</text>
<text text-anchor="start" x="8" y="-93.6" font-family="Times,serif" font-size="13.00">Generated by RailRoady 1.5.3</text>
<text text-anchor="start" x="8" y="-79.6" font-family="Times,serif" font-size="13.00">http://railroady.prestonlee.com</text>
</g>
<!-- User -->
<g id="node2" class="node"><title>User</title>
<ellipse fill="none" stroke="black" cx="259" cy="-111" rx="27.0966" ry="18"/>
<text text-anchor="middle" x="259" y="-107.3" font-family="Times,serif" font-size="14.00">User</text>
</g>
<!-- ApplicationRecord -->
<g id="node3" class="node"><title>ApplicationRecord</title>
<ellipse fill="none" stroke="black" cx="382" cy="-111" rx="77.1866" ry="18"/>
<text text-anchor="middle" x="382" y="-107.3" font-family="Times,serif" font-size="14.00">ApplicationRecord</text>
</g>
<!-- Movie -->
<g id="node4" class="node"><title>Movie</title>
<ellipse fill="none" stroke="black" cx="512" cy="-111" rx="34.394" ry="18"/>
<text text-anchor="middle" x="512" y="-107.3" font-family="Times,serif" font-size="14.00">Movie</text>
</g>
<!-- Impression -->
<g id="node5" class="node"><title>Impression</title>
<ellipse fill="none" stroke="black" cx="512" cy="-18" rx="50.0912" ry="18"/>
<text text-anchor="middle" x="512" y="-14.3" font-family="Times,serif" font-size="14.00">Impression</text>
</g>
<!-- Movie&#45;&gt;Impression -->
<g id="edge1" class="edge"><title>Movie&#45;&gt;Impression</title>
<path fill="none" stroke="#6f81ec" d="M512,-84.7285C512,-72.7246 512,-58.3622 512,-46.1291"/>
<ellipse fill="none" stroke="#6f81ec" cx="512" cy="-88.8836" rx="4" ry="4"/>
<polygon fill="#6f81ec" stroke="#6f81ec" points="512,-46.0397 516.5,-36.0396 512,-41.0397 512,-36.0397 512,-36.0397 512,-36.0397 512,-41.0397 507.5,-36.0397 512,-46.0397 512,-46.0397"/>
</g>
</g>
</svg>
