<?xml version="1.0" encoding="UTF-8" standalone="no"?>
<!DOCTYPE svg PUBLIC "-//W3C//DTD SVG 1.1//EN"
 "http://www.w3.org/Graphics/SVG/1.1/DTD/svg11.dtd">
<!-- Generated by graphviz version 2.38.0 (20140413.2041)
 -->
<!-- Title: models_diagram Pages: 1 -->
<svg width="762pt" height="303pt"
 viewBox="0.00 0.00 761.50 303.00" xmlns="http://www.w3.org/2000/svg" xmlns:xlink="http://www.w3.org/1999/xlink">
<g id="graph0" class="graph" transform="scale(1 1) rotate(0) translate(4 299)">
<title>models_diagram</title>
<polygon fill="none" stroke="none" points="-4,4 -4,-299 757.5,-299 757.5,4 -4,4"/>
<!-- _diagram_info -->
<g id="node1" class="node"><title>_diagram_info</title>
<text text-anchor="start" x="8" y="-243.6" font-family="Times,serif" font-size="13.00">Models diagram</text>
<text text-anchor="start" x="8" y="-229.6" font-family="Times,serif" font-size="13.00">Date: Feb 07 2019 &#45; 20:30</text>
<text text-anchor="start" x="8" y="-215.6" font-family="Times,serif" font-size="13.00">Migration version: 20190207153737</text>
<text text-anchor="start" x="8" y="-201.6" font-family="Times,serif" font-size="13.00">Generated by RailRoady 1.5.3</text>
<text text-anchor="start" x="8" y="-187.6" font-family="Times,serif" font-size="13.00">http://railroady.prestonlee.com</text>
</g>
<!-- User -->
<g id="node2" class="node"><title>User</title>
<path fill="none" stroke="black" d="M244,-143.5C244,-143.5 420,-143.5 420,-143.5 426,-143.5 432,-149.5 432,-155.5 432,-155.5 432,-282.5 432,-282.5 432,-288.5 426,-294.5 420,-294.5 420,-294.5 244,-294.5 244,-294.5 238,-294.5 232,-288.5 232,-282.5 232,-282.5 232,-155.5 232,-155.5 232,-149.5 238,-143.5 244,-143.5"/>
<text text-anchor="middle" x="332" y="-279.3" font-family="Times,serif" font-size="14.00">User</text>
<polyline fill="none" stroke="black" points="232,-271.5 432,-271.5 "/>
<text text-anchor="start" x="240" y="-256.3" font-family="Times,serif" font-size="14.00">id :INTEGER</text>
<text text-anchor="start" x="240" y="-241.3" font-family="Times,serif" font-size="14.00">email :varchar</text>
<text text-anchor="start" x="240" y="-226.3" font-family="Times,serif" font-size="14.00">encrypted_password :varchar</text>
<text text-anchor="start" x="240" y="-211.3" font-family="Times,serif" font-size="14.00">reset_password_token :varchar</text>
<text text-anchor="start" x="240" y="-196.3" font-family="Times,serif" font-size="14.00">reset_password_sent_at :datetime</text>
<text text-anchor="start" x="240" y="-181.3" font-family="Times,serif" font-size="14.00">remember_created_at :datetime</text>
<text text-anchor="start" x="240" y="-166.3" font-family="Times,serif" font-size="14.00">created_at :datetime</text>
<text text-anchor="start" x="240" y="-151.3" font-family="Times,serif" font-size="14.00">updated_at :datetime</text>
</g>
<!-- ApplicationRecord -->
<g id="node3" class="node"><title>ApplicationRecord</title>
<ellipse fill="none" stroke="black" cx="527" cy="-219" rx="77.1866" ry="18"/>
<text text-anchor="middle" x="527" y="-215.3" font-family="Times,serif" font-size="14.00">ApplicationRecord</text>
</g>
<!-- Movie -->
<g id="node4" class="node"><title>Movie</title>
<path fill="none" stroke="black" d="M634.5,-166C634.5,-166 741.5,-166 741.5,-166 747.5,-166 753.5,-172 753.5,-178 753.5,-178 753.5,-260 753.5,-260 753.5,-266 747.5,-272 741.5,-272 741.5,-272 634.5,-272 634.5,-272 628.5,-272 622.5,-266 622.5,-260 622.5,-260 622.5,-178 622.5,-178 622.5,-172 628.5,-166 634.5,-166"/>
<text text-anchor="middle" x="688" y="-256.8" font-family="Times,serif" font-size="14.00">Movie</text>
<polyline fill="none" stroke="black" points="622.5,-249 753.5,-249 "/>
<text text-anchor="start" x="630.5" y="-233.8" font-family="Times,serif" font-size="14.00">id :INTEGER</text>
<text text-anchor="start" x="630.5" y="-218.8" font-family="Times,serif" font-size="14.00">title :varchar</text>
<text text-anchor="start" x="630.5" y="-203.8" font-family="Times,serif" font-size="14.00">description :text</text>
<text text-anchor="start" x="630.5" y="-188.8" font-family="Times,serif" font-size="14.00">created_at :datetime</text>
<text text-anchor="start" x="630.5" y="-173.8" font-family="Times,serif" font-size="14.00">updated_at :datetime</text>
</g>
<!-- Impression -->
<g id="node5" class="node"><title>Impression</title>
<path fill="none" stroke="black" d="M634.5,-0.5C634.5,-0.5 741.5,-0.5 741.5,-0.5 747.5,-0.5 753.5,-6.5 753.5,-12.5 753.5,-12.5 753.5,-94.5 753.5,-94.5 753.5,-100.5 747.5,-106.5 741.5,-106.5 741.5,-106.5 634.5,-106.5 634.5,-106.5 628.5,-106.5 622.5,-100.5 622.5,-94.5 622.5,-94.5 622.5,-12.5 622.5,-12.5 622.5,-6.5 628.5,-0.5 634.5,-0.5"/>
<text text-anchor="middle" x="688" y="-91.3" font-family="Times,serif" font-size="14.00">Impression</text>
<polyline fill="none" stroke="black" points="622.5,-83.5 753.5,-83.5 "/>
<text text-anchor="start" x="630.5" y="-68.3" font-family="Times,serif" font-size="14.00">id :INTEGER</text>
<text text-anchor="start" x="630.5" y="-53.3" font-family="Times,serif" font-size="14.00">body :text</text>
<text text-anchor="start" x="630.5" y="-38.3" font-family="Times,serif" font-size="14.00">movie_id :integer</text>
<text text-anchor="start" x="630.5" y="-23.3" font-family="Times,serif" font-size="14.00">created_at :datetime</text>
<text text-anchor="start" x="630.5" y="-8.3" font-family="Times,serif" font-size="14.00">updated_at :datetime</text>
</g>
<!-- Movie&#45;&gt;Impression -->
<g id="edge1" class="edge"><title>Movie&#45;&gt;Impression</title>
<path fill="none" stroke="#d7a5e7" d="M688,-157.723C688,-144.393 688,-130.242 688,-116.832"/>
<ellipse fill="none" stroke="#d7a5e7" cx="688" cy="-161.818" rx="4" ry="4"/>
<polygon fill="#d7a5e7" stroke="#d7a5e7" points="688,-116.747 692.5,-106.747 688,-111.747 688,-106.747 688,-106.747 688,-106.747 688,-111.747 683.5,-106.747 688,-116.747 688,-116.747"/>
</g>
</g>
</svg>
